<svg width="31" height="40" viewBox="0 0 31 40" fill="none" xmlns="http://www.w3.org/2000/svg">
<path d="M30.7168 16.8432V1.55135C30.7168 1.55135 30.7168 0 29.1644 0H13.8614C13.8614 0 12.3089 1.32097e-07 12.3089 1.55135V15.2919C12.3089 16.9541 10.9782 18.2838 9.42574 18.2838H1.66337C1.66337 18.2838 0 18.2838 0 19.9459V28.9216C0 28.9216 0 30.5838 1.66337 30.5838H9.20396C10.8673 30.5838 12.3089 31.9135 12.3089 33.6865V38.1189C12.3089 38.1189 12.3089 39.8919 14.0832 39.8919H16.7446C16.7446 39.8919 18.5188 39.8919 18.5188 38.1189V33.6865C18.5188 32.0243 19.8495 30.6946 21.5129 30.5838H23.0653C23.0653 30.5838 24.7287 30.5838 24.7287 28.9216V26.1514C24.7287 26.1514 24.7287 24.4892 23.0653 24.4892H20.1822C20.1822 24.4892 18.5188 24.4892 18.5188 26.1514V27.5919C18.5188 29.2541 17.0772 30.5838 15.4139 30.5838C13.7505 30.5838 12.3089 29.2541 12.3089 27.4811V21.3865C12.3089 19.7243 13.6396 18.2838 15.4139 18.2838H29.1644C29.1644 18.3946 30.7168 18.3946 30.7168 16.8432Z" fill="#F7B952"/>
</svg>
