<svg width="65" height="65" viewBox="0 0 65 65" fill="none" xmlns="http://www.w3.org/2000/svg">
<rect x="0.0239258" y="0.25" width="64" height="64" rx="8" fill="white"/>
<path d="M44.0239 29.8258V17.8778C44.0239 17.8778 44.0239 16.6656 42.8109 16.6656H30.8543C30.8543 16.6656 29.6413 16.6656 29.6413 17.8778V28.6137C29.6413 29.9124 28.6015 30.9513 27.3885 30.9513H21.3236C21.3236 30.9513 20.0239 30.9513 20.0239 32.25V39.263C20.0239 39.263 20.0239 40.5617 21.3236 40.5617H27.2153C28.5149 40.5617 29.6413 41.6007 29.6413 42.9859V46.4491C29.6413 46.4491 29.6413 47.8344 31.0275 47.8344H33.107C33.107 47.8344 34.4932 47.8344 34.4932 46.4491V42.9859C34.4932 41.6872 35.533 40.6483 36.8326 40.5617H38.0456C38.0456 40.5617 39.3452 40.5617 39.3452 39.263V37.0985C39.3452 37.0985 39.3452 35.7998 38.0456 35.7998H35.7929C35.7929 35.7998 34.4932 35.7998 34.4932 37.0985V38.224C34.4932 39.5227 33.3669 40.5617 32.0672 40.5617C30.7676 40.5617 29.6413 39.5227 29.6413 38.1375V33.3756C29.6413 32.0769 30.681 30.9513 32.0672 30.9513H42.8109C42.8109 31.0379 44.0239 31.0379 44.0239 29.8258Z" fill="#393385"/>
</svg>
